<svg width="806" height="238" viewBox="0 0 806 238" fill="none" xmlns="http://www.w3.org/2000/svg">
<path d="M180.692 133.304C184.806 123.341 190.418 115.671 197.521 110.304C204.615 104.938 212.545 102.254 221.287 102.254C228.762 102.254 235.326 104.096 240.963 107.771C246.601 111.456 250.946 116.282 253.984 122.26V104.086H286.5V232.422H253.984V214.248C250.814 220.226 246.41 225.062 240.765 228.737C235.127 232.422 228.563 234.254 221.088 234.254C212.462 234.254 204.607 231.531 197.513 226.094C190.41 220.657 184.806 212.907 180.684 202.864C176.561 192.821 174.5 181.206 174.5 168.019C174.508 154.842 176.57 143.267 180.692 133.304ZM247.238 145.029C242.735 139.362 237.255 136.518 230.79 136.518C224.325 136.518 218.836 139.322 214.342 144.909C209.838 150.506 207.587 158.216 207.587 168.029C207.587 177.841 209.838 185.622 214.342 191.379C218.836 197.126 224.325 200 230.79 200C237.255 200 242.735 197.166 247.238 191.489C251.733 185.812 253.993 178.072 253.993 168.259C253.993 158.446 251.741 150.707 247.238 145.029Z" fill="#1A1A1A"/>
<path d="M481.68 91.7711C487.447 77.8081 495.314 67.0587 505.27 59.5368C515.215 52.015 526.331 48.2541 538.585 48.2541C549.063 48.2541 558.265 50.8362 566.167 55.9864C574.07 61.1506 580.162 67.9147 584.42 76.2925V50.8222C584.42 50.8222 598.5 42.1075 630 50.8222C661.5 59.5369 650 221.817 630 230.686C610 239.555 584.42 230.686 584.42 230.686V205.216C579.976 213.594 573.803 220.372 565.889 225.522C557.987 230.686 548.785 233.254 538.306 233.254C526.215 233.254 515.203 229.437 505.259 221.817C495.303 214.197 487.447 203.335 481.668 189.26C475.889 175.185 473 158.906 473 140.424C473.012 121.957 475.901 105.734 481.68 91.7711ZM574.963 108.204C568.65 100.261 560.969 96.2758 551.906 96.2758C542.844 96.2758 535.15 100.205 528.849 108.036C522.537 115.88 519.381 126.686 519.381 140.438C519.381 154.191 522.537 165.095 528.849 173.164C535.15 181.219 542.844 185.246 551.906 185.246C560.969 185.246 568.65 181.275 574.963 173.318C581.264 165.361 584.432 154.514 584.432 140.761C584.432 127.009 581.275 116.161 574.963 108.204Z" fill="#142F74"/>
<path d="M148.672 102.223C162.051 104.923 171.747 110.986 180.5 123.254C168.856 144.572 167.464 163.165 168.5 168.723H164.019C164.019 165.32 163.793 162.5 162.854 159.338C161.844 155.943 160.317 152.764 158.324 149.971C154.475 144.576 149.136 140.966 143.253 139.779C137.37 138.592 131.321 139.904 126.177 143.484C121.033 147.063 117.126 152.68 115.146 159.338C114.192 162.549 113.716 165.903 113.716 169.254C113.716 172.854 114.265 176.451 115.362 179.868C117.481 186.467 121.505 191.967 126.722 195.394C131.94 198.821 138.015 199.955 143.871 198.595C149.728 197.236 154.989 193.47 158.723 187.964H171.5C170.398 193.394 176 205.754 185.347 215.254C175.302 231.06 159.493 233.794 150.078 235.98C136.759 239.073 122.945 236.494 111.079 228.699C99.2138 220.905 90.0624 208.398 85.2444 193.392C80.4265 178.386 80.2526 161.848 84.7537 146.704C89.2547 131.561 98.1404 118.789 109.838 110.648C121.536 102.508 135.292 99.5231 148.672 102.223Z" fill="#1A1A1A"/>
<path d="M109.519 168.723H165.019V154.723H109.519V168.723Z" fill="#1A1A1A"/>
<path d="M294 233.254V105.15H323.562V121.663C349.333 87.2349 374.726 108.986 384.201 124.165C390.644 114.657 409.139 97.5433 431.575 105.15C454.012 112.756 459.874 145.349 460 160.695V233.254H432.333L431.575 160.695C431.954 153.356 428.695 138.277 412.626 136.675C396.556 135.074 391.275 153.022 390.644 162.196V233.254H361.461V160.695C360.83 152.021 356.004 135.074 341.753 136.675C327.503 138.277 323.688 153.356 323.562 160.695V233.254H294Z" fill="#1A1A1A"/>
<path d="M47 234.254V143.254V78.7541H0V48.2541H137V78.7541H86L85.5 129.754C74.8333 143.087 68 186.254 86 210.754V234.254H47Z" fill="#1A1A1A"/>
<path d="M180.692 133.609C184.806 123.646 190.418 115.977 197.521 110.61C204.615 105.243 212.545 102.559 221.287 102.559C228.762 102.559 235.326 104.402 240.963 108.076C246.601 111.761 250.946 116.587 253.984 122.565V104.392H286.5V232.727H253.984V214.554C250.814 220.531 246.41 225.367 240.765 229.042C235.127 232.727 228.563 234.559 221.088 234.559C212.462 234.559 204.607 231.836 197.513 226.399C190.41 220.962 184.806 213.212 180.684 203.169C176.561 193.126 174.5 181.511 174.5 168.324C174.508 155.147 176.57 143.572 180.692 133.609ZM247.238 145.334C242.735 139.667 237.255 136.823 230.79 136.823C224.325 136.823 218.836 139.627 214.342 145.214C209.838 150.811 207.587 158.521 207.587 168.334C207.587 178.147 209.838 185.927 214.342 191.684C218.836 197.432 224.325 200.305 230.79 200.305C237.255 200.305 242.735 197.472 247.238 191.794C251.733 186.117 253.993 178.377 253.993 168.564C253.993 158.752 251.741 151.012 247.238 145.334Z" fill="#1A1A1A"/>
<path d="M481.68 92.0763C487.447 78.1132 495.314 67.3638 505.27 59.842C515.215 52.3202 526.331 48.5593 538.585 48.5593C549.063 48.5593 558.265 51.1414 566.167 56.2916C574.07 61.4558 580.162 68.2199 584.42 76.5977V51.1274C584.42 51.1274 598.5 42.4126 630 51.1274C661.5 59.8421 650 222.122 630 230.991C610 239.86 584.42 230.991 584.42 230.991V205.521C579.976 213.899 573.803 220.677 565.889 225.827C557.987 230.991 548.785 233.559 538.306 233.559C526.215 233.559 515.203 229.742 505.259 222.122C495.303 214.502 487.447 203.64 481.668 189.565C475.889 175.49 473 159.211 473 140.73C473.012 122.262 475.901 106.039 481.68 92.0763ZM574.963 108.509C568.65 100.566 560.969 96.581 551.906 96.581C542.844 96.581 535.15 100.51 528.849 108.341C522.537 116.185 519.381 126.991 519.381 140.743C519.381 154.496 522.537 165.4 528.849 173.469C535.15 181.524 542.844 185.552 551.906 185.552C560.969 185.552 568.65 181.58 574.963 173.623C581.264 165.667 584.432 154.819 584.432 141.066C584.432 127.314 581.275 116.466 574.963 108.509Z" fill="#F26363"/>
<path d="M148.672 102.528C162.051 105.228 171.747 111.292 180.5 123.559C168.856 144.877 167.464 163.47 168.5 169.028H164.019C164.019 165.625 163.793 162.806 162.854 159.644C161.844 156.248 160.317 153.069 158.324 150.276C154.475 144.882 149.136 141.271 143.253 140.084C137.37 138.897 131.321 140.209 126.177 143.789C121.033 147.368 117.126 152.985 115.146 159.644C114.192 162.854 113.716 166.208 113.716 169.559C113.716 173.159 114.265 176.756 115.362 180.173C117.481 186.772 121.505 192.272 126.722 195.699C131.94 199.126 138.015 200.26 143.871 198.901C149.728 197.541 154.989 193.775 158.723 188.269H171.5C170.398 193.699 176 206.059 185.347 215.559C175.302 231.365 159.493 234.099 150.078 236.285C136.759 239.378 122.945 236.799 111.079 229.005C99.2138 221.21 90.0624 208.703 85.2444 193.697C80.4265 178.691 80.2526 162.153 84.7537 147.009C89.2547 131.866 98.1404 119.094 109.838 110.953C121.536 102.813 135.292 99.8283 148.672 102.528Z" fill="#1A1A1A"/>
<path d="M109.519 169.028H165.019V155.028H109.519V169.028Z" fill="#1A1A1A"/>
<path d="M294 233.559V105.455H323.562V121.968C349.333 87.5401 374.726 109.291 384.201 124.47C390.644 114.962 409.139 97.8485 431.575 105.455C454.012 113.061 459.874 145.654 460 161V233.559H432.333L431.575 161C431.954 153.661 428.695 138.582 412.626 136.98C396.556 135.379 391.275 153.327 390.644 162.501V233.559H361.461V161C360.83 152.326 356.004 135.379 341.753 136.98C327.503 138.582 323.688 153.661 323.562 161V233.559H294Z" fill="#1A1A1A"/>
<path d="M47 234.559V143.559V79.0592H0V48.5592H137V79.0592H86L85.5 130.059C74.8333 143.393 68 186.559 86 211.059V234.559H47Z" fill="#1A1A1A"/>
<path d="M534 32.7542C545.2 31.9542 565.333 46.0875 574 53.2542C567.667 28.7542 548.6 -15.1458 523 5.2542C497.4 25.6542 519.667 32.0875 534 32.7542Z" fill="#142F74"/>
<path d="M699.059 115.801C691.427 115.801 675.266 122.541 661.35 115.801C647.433 109.061 699.059 47.501 718.362 39.413C737.665 31.3249 743.052 33.1222 765.498 39.413C787.944 45.7037 752.928 194.436 765.498 194.436C778.068 194.436 792.251 183.806 801.411 194.436C801.411 194.436 811.736 211.24 801.411 225.441C791.086 239.642 689.631 230.384 682.449 225.441C675.266 220.498 675.806 204.555 682.449 194.436C692.558 179.038 717.464 204.771 729.585 194.436C733.943 190.72 737.083 175.208 738.628 156.969C741.085 131.177 741.128 116.873 735.762 92C734.203 87.1482 732.158 84.4063 729.585 84.7966C714.771 87.0434 706.69 115.801 699.059 115.801Z" fill="#F26363"/>
</svg>
