<svg width="797" height="239" viewBox="0 0 797 239" fill="none" xmlns="http://www.w3.org/2000/svg">
<path d="M180.692 134.05C184.806 124.087 190.418 116.417 197.521 111.05C204.615 105.683 212.545 103 221.287 103C228.762 103 235.326 104.842 240.963 108.517C246.601 112.202 250.946 117.028 253.984 123.006V104.832H286.5V233.168H253.984V214.994C250.814 220.972 246.41 225.808 240.765 229.483C235.127 233.168 228.563 235 221.088 235C212.462 235 204.607 232.276 197.513 226.839C190.41 221.402 184.806 213.652 180.684 203.609C176.561 193.567 174.5 181.952 174.5 168.765C174.508 155.588 176.57 144.013 180.692 134.05ZM247.238 145.775C242.735 140.108 237.255 137.264 230.79 137.264C224.325 137.264 218.836 140.068 214.342 145.655C209.838 151.252 207.587 158.962 207.587 168.775C207.587 178.587 209.838 186.367 214.342 192.125C218.836 197.872 224.325 200.746 230.79 200.746C237.255 200.746 242.735 197.912 247.238 192.235C251.733 186.558 253.993 178.818 253.993 169.005C253.993 159.192 251.741 151.452 247.238 145.775Z" fill="#E4E4E4"/>
<path d="M476.68 92.8222C482.447 78.8591 490.314 68.1097 500.27 60.5879C510.215 53.0661 521.331 49.3051 533.585 49.3051C544.063 49.3051 553.265 51.8872 561.167 57.0374C569.07 62.2017 575.162 68.9657 579.42 77.3435V51.8732C579.42 51.8732 593.5 43.1585 625 51.8732C632.969 54.0778 638.186 66.11 641.209 83C650.138 132.876 639.941 225.112 625 231.737C605 240.606 579.42 231.737 579.42 231.737V206.267C574.976 214.645 568.803 221.423 560.889 226.573C552.987 231.737 543.785 234.305 533.306 234.305C521.215 234.305 510.203 230.488 500.259 222.868C490.303 215.248 482.447 204.386 476.668 190.311C470.889 176.236 468 159.957 468 141.475C468.012 123.008 470.901 106.785 476.68 92.8222ZM569.963 109.255C563.65 101.312 555.969 97.3268 546.906 97.3268C537.844 97.3268 530.15 101.256 523.849 109.087C517.537 116.931 514.381 127.737 514.381 141.489C514.381 155.242 517.537 166.146 523.849 174.215C530.15 182.27 537.844 186.298 546.906 186.298C555.969 186.298 563.65 182.326 569.963 174.369C576.264 166.412 579.432 155.565 579.432 141.812C579.432 128.06 576.275 117.212 569.963 109.255Z" fill="#F34C4C"/>
<path d="M148.672 102.969C162.051 105.669 171.747 111.732 180.5 124C168.856 145.317 167.464 163.91 168.5 169.469H164.019C164.019 166.066 163.793 163.246 162.854 160.084C161.844 156.688 160.317 153.51 158.324 150.717C154.475 145.322 149.136 141.712 143.253 140.525C137.37 139.337 131.321 140.65 126.177 144.229C121.033 147.809 117.126 153.425 115.146 160.084C114.192 163.295 113.716 166.648 113.716 170C113.716 173.6 114.265 177.197 115.362 180.614C117.481 187.213 121.505 192.712 126.722 196.14C131.94 199.567 138.015 200.701 143.871 199.341C149.728 197.981 154.989 194.215 158.723 188.709H171.5C170.398 194.14 176 206.5 185.347 216C175.302 231.806 159.493 234.54 150.078 236.726C136.759 239.819 122.945 237.239 111.079 229.445C99.2138 221.651 90.0624 209.144 85.2444 194.138C80.4265 179.131 80.2526 162.593 84.7537 147.45C89.2547 132.307 98.1404 119.535 109.838 111.394C121.536 103.253 135.292 100.269 148.672 102.969Z" fill="#E4E4E4"/>
<path d="M109.519 169.469H165.019V155.469H109.519V169.469Z" fill="#E4E4E4"/>
<path d="M294 234V105.895H323.562V122.409C349.333 87.9807 374.726 109.732 384.201 124.911C390.644 115.403 409.139 98.2891 431.575 105.895C454.012 113.502 459.874 146.095 460 161.441V234H432.333L431.575 161.441C431.954 154.101 428.695 139.022 412.626 137.421C396.556 135.82 391.275 153.768 390.644 162.942V234H361.461V161.441C360.83 152.767 356.004 135.82 341.753 137.421C327.503 139.022 323.688 154.101 323.562 161.441V234H294Z" fill="#E4E4E4"/>
<path d="M47 235V144V79.4999H0V48.9999H137V79.4999H86L85.5 130.5C74.8333 143.833 68 187 86 211.5V235H47Z" fill="#E4E4E4"/>
<path d="M180.692 134.355C184.806 124.392 190.418 116.722 197.521 111.355C204.615 105.989 212.545 103.305 221.287 103.305C228.762 103.305 235.326 105.147 240.963 108.822C246.601 112.507 250.946 117.333 253.984 123.311V105.137H286.5V233.473H253.984V215.299C250.814 221.277 246.41 226.113 240.765 229.788C235.127 233.473 228.563 235.305 221.088 235.305C212.462 235.305 204.607 232.582 197.513 227.145C190.41 221.708 184.806 213.958 180.684 203.915C176.561 193.872 174.5 182.257 174.5 169.07C174.508 155.893 176.57 144.318 180.692 134.355ZM247.238 146.08C242.735 140.413 237.255 137.569 230.79 137.569C224.325 137.569 218.836 140.373 214.342 145.96C209.838 151.557 207.587 159.267 207.587 169.08C207.587 178.892 209.838 186.672 214.342 192.43C218.836 198.177 224.325 201.051 230.79 201.051C237.255 201.051 242.735 198.217 247.238 192.54C251.733 186.863 253.993 179.123 253.993 169.31C253.993 159.497 251.741 151.757 247.238 146.08Z" fill="#E4E4E4"/>
<path d="M148.672 103.274C162.051 105.974 171.747 112.037 180.5 124.305C168.856 145.623 167.464 164.216 168.5 169.774H164.019C164.019 166.371 163.793 163.551 162.854 160.389C161.844 156.994 160.317 153.815 158.324 151.022C154.475 145.627 149.136 142.017 143.253 140.83C137.37 139.643 131.321 140.955 126.177 144.535C121.033 148.114 117.126 153.73 115.146 160.389C114.192 163.6 113.716 166.954 113.716 170.305C113.716 173.905 114.265 177.502 115.362 180.919C117.481 187.518 121.505 193.017 126.722 196.445C131.94 199.872 138.015 201.006 143.871 199.646C149.728 198.287 154.989 194.521 158.723 189.015H171.5C170.398 194.445 176 206.805 185.347 216.305C175.302 232.111 159.493 234.845 150.078 237.031C136.759 240.124 122.945 237.545 111.079 229.75C99.2138 221.956 90.0624 209.449 85.2444 194.443C80.4265 179.437 80.2526 162.899 84.7537 147.755C89.2547 132.612 98.1404 119.84 109.838 111.699C121.536 103.559 135.292 100.574 148.672 103.274Z" fill="#E4E4E4"/>
<path d="M109.519 169.774H165.019V155.774H109.519V169.774Z" fill="#E4E4E4"/>
<path d="M294 234.305V106.201H323.562V122.714C349.333 88.2859 374.726 110.037 384.201 125.216C390.644 115.708 409.139 98.5943 431.575 106.201C454.012 113.807 459.874 146.4 460 161.746V234.305H432.333L431.575 161.746C431.954 154.407 428.695 139.328 412.626 137.726C396.556 136.125 391.275 154.073 390.644 163.247V234.305H361.461V161.746C360.83 153.072 356.004 136.125 341.753 137.726C327.503 139.328 323.688 154.407 323.562 161.746V234.305H294Z" fill="#E4E4E4"/>
<path d="M47 235.305V144.305V79.8051H0V49.3051H137V79.8051H86L85.5 130.805C74.8333 144.138 68 187.305 86 211.805V235.305H47Z" fill="#E4E4E4"/>
<path d="M534 33.5C545.2 32.7 565.333 46.8334 574 54C567.667 29.5 548.6 -14.4 523 6.00005C497.4 26.4 519.667 32.8334 534 33.5Z" fill="#044343"/>
<path d="M690.059 119.801C682.427 119.801 666.266 126.541 652.35 119.801C638.433 113.061 690.059 51.501 709.362 43.413C728.665 35.3249 734.052 37.1222 756.498 43.413C778.944 49.7037 743.928 198.436 756.498 198.436C769.068 198.436 783.251 187.806 792.411 198.436C792.411 198.436 802.736 215.24 792.411 229.441C782.086 243.642 680.631 234.384 673.449 229.441C666.266 224.498 666.806 208.555 673.449 198.436C683.558 183.038 708.464 208.771 720.585 198.436C724.943 194.72 728.083 179.208 729.628 160.969C732.085 135.177 732.128 120.873 726.762 96C725.203 91.1482 723.158 88.4063 720.585 88.7966C705.771 91.0434 697.69 119.801 690.059 119.801Z" fill="#F34C4C"/>
</svg>
